<svg width="86" height="16" viewBox="0 0 86 16" fill="none" xmlns="http://www.w3.org/2000/svg">
<g clip-path="url(#clip0_37_3)">
<mask id="mask0_37_3" style="mask-type:luminance" maskUnits="userSpaceOnUse" x="0" y="0" width="16" height="16">
<path d="M15.3546 0H0V15.3546H15.3546V0Z" fill="white"/>
</mask>
<g mask="url(#mask0_37_3)">
<path d="M6.55381 15.0818C6.4091 14.6904 6.30104 14.2865 6.23098 13.8752L5.00497 13.5566V11.8858L6.23098 11.5663C6.30118 11.1548 6.40924 10.7507 6.55381 10.359L5.65226 9.47103L6.48688 8.02469L7.70948 8.36359C7.97627 8.04301 8.2718 7.74753 8.59238 7.48074C8.47941 7.07289 8.36644 6.66537 8.25348 6.25809L9.70145 5.42267C9.99801 5.72204 10.2946 6.02224 10.5911 6.32334C10.9827 6.17854 11.3869 6.07048 11.7985 6.00051L12.1163 4.7745H13.7863C13.893 5.18286 13.9995 5.59154 14.1057 6.00051C14.5172 6.07071 14.9214 6.17877 15.3131 6.32334L15.3546 6.28094V1.00997C15.3528 0.742657 15.2458 0.486797 15.0568 0.297776C14.8678 0.108754 14.612 0.00177622 14.3446 0H7.06471L7.21722 0.263507L6.57582 0.895587C6.67846 1.17406 6.7553 1.46137 6.80545 1.75389L7.67732 1.98096V3.16717L6.80545 3.39509C6.75544 3.68792 6.67855 3.97551 6.57582 4.25425L7.21722 4.88545L6.6241 5.91409L5.75396 5.67684C5.56415 5.90474 5.35401 6.11493 5.12611 6.30469C5.20688 6.59447 5.2868 6.88425 5.36589 7.17399L4.33728 7.76711C4.12715 7.55248 3.91674 7.33865 3.70605 7.12571C3.42726 7.22788 3.13966 7.30416 2.84689 7.35365L2.62067 8.22548H1.43446C1.35877 7.93514 1.28308 7.64456 1.20739 7.35365C0.914292 7.30364 0.626412 7.22676 0.347389 7.12402L0 7.47648V14.3446C0.00177622 14.612 0.108754 14.8678 0.297776 15.0568C0.486797 15.2458 0.742657 15.3528 1.00997 15.3546H6.27758L6.55381 15.0818Z" fill="#D43228"/>
<path d="M15.3547 14.3447V8.36448C14.3903 7.83198 13.2764 7.63479 12.1877 7.80371C11.0991 7.97262 10.0973 8.4982 9.33958 9.29791C8.58185 10.0976 8.111 11.1262 8.00097 12.2224C7.8909 13.3186 8.14783 14.4202 8.73146 15.3546H14.3448C14.6121 15.3528 14.8679 15.2458 15.0569 15.0568C15.246 14.8678 15.3529 14.612 15.3547 14.3447Z" fill="#D43228"/>
<path d="M0 1.00997V5.47348C0.732276 5.987 1.63193 6.20401 2.51779 6.08081C3.40366 5.9576 4.20993 5.5033 4.77426 4.80941C5.33859 4.11555 5.61907 3.23363 5.55925 2.34124C5.49937 1.44885 5.10363 0.612287 4.45166 0H1.00997C0.742657 0.00177622 0.486797 0.108754 0.297776 0.297776C0.108754 0.486797 0.00177622 0.742657 0 1.00997Z" fill="#D43228"/>
</g>
<path d="M22.8899 4.29373L22.3346 9.14262H20.4961L21.7794 0.0740967L25.3948 5.65092L29.0102 0.0740967L30.2935 9.14262H28.4549L27.8997 4.29373L25.3948 8.34062L22.8899 4.29373Z" fill="white"/>
<path d="M32.813 9.14255V7.64965H37.1687V9.14255H32.813ZM32.813 1.99877V0.505859H37.1687V1.99877H32.813ZM32.813 5.29306V3.82481H36.922V5.29306H32.813ZM31.6777 0.505859H33.3806V9.14255H31.6777V0.505859Z" fill="white"/>
<path d="M40.3272 4.82423C40.3272 5.39178 40.4547 5.88941 40.7097 6.31712C40.9729 6.7366 41.3143 7.06153 41.7338 7.29182C42.1534 7.51392 42.6099 7.62498 43.1035 7.62498C43.5148 7.62498 43.8809 7.57151 44.2017 7.46457C44.5225 7.35763 44.8104 7.21367 45.0654 7.03274C45.3287 6.85177 45.5549 6.65434 45.7441 6.44051V8.42692C45.3904 8.70661 45.0037 8.92456 44.5842 9.08085C44.1729 9.23715 43.6505 9.3153 43.0171 9.3153C42.359 9.3153 41.7462 9.20836 41.1786 8.99448C40.6192 8.78065 40.1297 8.47217 39.7102 8.06914C39.2989 7.66611 38.9781 7.19311 38.7478 6.65023C38.5256 6.09913 38.4146 5.49045 38.4146 4.82423C38.4146 4.15795 38.5256 3.55338 38.7478 3.01051C38.9781 2.4594 39.2989 1.98232 39.7102 1.57928C40.1297 1.17623 40.6192 0.867783 41.1786 0.653923C41.7462 0.44006 42.359 0.33313 43.0171 0.33313C43.6505 0.33313 44.1729 0.411272 44.5842 0.567554C45.0037 0.723835 45.3904 0.941813 45.7441 1.22148V3.20791C45.5549 2.99405 45.3287 2.79664 45.0654 2.61568C44.8104 2.43473 44.5225 2.29078 44.2017 2.18385C43.8809 2.07692 43.5148 2.02345 43.1035 2.02345C42.6099 2.02345 42.1534 2.13861 41.7338 2.36892C41.3143 2.59101 40.9729 2.9118 40.7097 3.33129C40.4547 3.75079 40.3272 4.24843 40.3272 4.82423Z" fill="white"/>
<path d="M48.0795 5.34242V3.75079H54.422V5.34242H48.0795ZM53.2989 0.505859H55.0638V9.14255H53.2989V0.505859ZM47.4995 0.505859H49.2639V9.14255H47.4995V0.505859Z" fill="white"/>
<path d="M58.1195 7.18077L58.3294 5.78659H62.4751L62.685 7.18077H58.1195ZM60.3775 3.30662L59.0819 6.2801L59.1192 6.67491L57.984 9.14255H55.9971L60.3775 0L64.7583 9.14255H62.7593L61.6488 6.74894L61.6731 6.30478L60.3775 3.30662Z" fill="white"/>
<path d="M71.8406 0.50593H73.5433V9.57444L67.3985 3.78787V9.14262H65.6953V0.0740967L71.8406 5.86069V0.50593Z" fill="white"/>
<path d="M75.4199 0.505859H77.2091V9.14255H75.4199V0.505859Z" fill="white"/>
<path d="M80.4897 4.82423C80.4897 5.39178 80.6173 5.88941 80.872 6.31712C81.1352 6.7366 81.4768 7.06153 81.8961 7.29182C82.3158 7.51392 82.7725 7.62498 83.266 7.62498C83.6773 7.62498 84.0433 7.57151 84.3644 7.46457C84.685 7.35763 84.9729 7.21367 85.2281 7.03274C85.4913 6.85177 85.7175 6.65434 85.9068 6.44051V8.42692C85.553 8.70661 85.1664 8.92456 84.7467 9.08085C84.3354 9.23715 83.8129 9.3153 83.1796 9.3153C82.5215 9.3153 81.9087 9.20836 81.3408 8.99448C80.7818 8.78065 80.292 8.47217 79.8728 8.06914C79.4615 7.66611 79.1404 7.19311 78.9104 6.65023C78.6879 6.09913 78.5771 5.49045 78.5771 4.82423C78.5771 4.15795 78.6879 3.55338 78.9104 3.01051C79.1404 2.4594 79.4615 1.98232 79.8728 1.57928C80.292 1.17623 80.7818 0.867783 81.3408 0.653923C81.9087 0.44006 82.5215 0.33313 83.1796 0.33313C83.8129 0.33313 84.3354 0.411272 84.7467 0.567554C85.1664 0.723835 85.553 0.941813 85.9068 1.22148V3.20791C85.7175 2.99405 85.4913 2.79664 85.2281 2.61568C84.9729 2.43473 84.685 2.29078 84.3644 2.18385C84.0433 2.07692 83.6773 2.02345 83.266 2.02345C82.7725 2.02345 82.3158 2.13861 81.8961 2.36892C81.4768 2.59101 81.1352 2.9118 80.872 3.33129C80.6173 3.75079 80.4897 4.24843 80.4897 4.82423Z" fill="white"/>
<path d="M20.4961 12.9877H20.9841V15.4069H20.4961V12.9877ZM20.793 13.4059V12.9877H21.2673C21.4561 12.9877 21.6165 13.0188 21.7484 13.081C21.8827 13.1432 21.985 13.2319 22.0555 13.3471C22.1261 13.4623 22.1613 13.5994 22.1613 13.7584C22.1613 13.9151 22.1261 14.0522 22.0555 14.1697C21.985 14.2849 21.8827 14.3736 21.7484 14.4358C21.6165 14.498 21.4561 14.5291 21.2673 14.5291H20.793V14.1109H21.2673C21.3969 14.1109 21.4994 14.0809 21.5744 14.0211C21.6495 13.9612 21.687 13.8736 21.687 13.7584C21.687 13.6409 21.6495 13.5534 21.5744 13.4957C21.4994 13.4358 21.3969 13.4059 21.2673 13.4059H20.793Z" fill="white"/>
<path d="M27.0332 15.4069V14.9888H28.2377V15.4069H27.0332ZM27.0332 13.4059V12.9877H28.2377V13.4059H27.0332ZM27.0332 14.3287V13.9174H28.1695V14.3287H27.0332ZM26.7192 12.9877H27.1902V15.4069H26.7192V12.9877Z" fill="white"/>
<path d="M33.4237 14.0487L33.2702 15.4069H32.7617L33.1166 12.8667L34.1165 14.4289L35.1162 12.8667L35.4711 15.4069H34.9627L34.8092 14.0487L34.1165 15.1823L33.4237 14.0487Z" fill="white"/>
<path d="M40.3097 14.1972C40.3097 14.3516 40.3416 14.4887 40.4053 14.6085C40.4689 14.7283 40.5565 14.8227 40.668 14.8919C40.7795 14.961 40.9092 14.9956 41.057 14.9956C41.2049 14.9956 41.3345 14.961 41.446 14.8919C41.5575 14.8227 41.6439 14.7283 41.7054 14.6085C41.7691 14.4887 41.8009 14.3516 41.8009 14.1972C41.8009 14.0429 41.7702 13.9058 41.7088 13.7859C41.6474 13.6661 41.5609 13.5717 41.4494 13.5026C41.3379 13.4334 41.2072 13.3989 41.057 13.3989C40.9092 13.3989 40.7795 13.4334 40.668 13.5026C40.5565 13.5717 40.4689 13.6661 40.4053 13.7859C40.3416 13.9058 40.3097 14.0429 40.3097 14.1972ZM39.7944 14.1972C39.7944 14.0129 39.8263 13.8447 39.89 13.6926C39.9537 13.5383 40.0424 13.4046 40.1561 13.2917C40.2699 13.1788 40.403 13.0924 40.5554 13.0325C40.7101 12.9703 40.8773 12.9392 41.057 12.9392C41.239 12.9392 41.4062 12.9703 41.5587 13.0325C41.7111 13.0924 41.8441 13.1788 41.9579 13.2917C42.0739 13.4046 42.1626 13.5383 42.224 13.6926C42.2877 13.8447 42.3196 14.0129 42.3196 14.1972C42.3196 14.3792 42.2877 14.5486 42.224 14.7052C42.1626 14.8596 42.075 14.9944 41.9613 15.1096C41.8498 15.2248 41.7167 15.3147 41.5621 15.3792C41.4096 15.4414 41.2413 15.4725 41.057 15.4725C40.8728 15.4725 40.7033 15.4414 40.5486 15.3792C40.3962 15.3147 40.2631 15.2248 40.1493 15.1096C40.0356 14.9944 39.948 14.8596 39.8866 14.7052C39.8251 14.5486 39.7944 14.3792 39.7944 14.1972Z" fill="white"/>
<path d="M47.0373 14.3425V13.8967H48.7914V14.3425H47.0373ZM48.481 12.9877H48.969V15.4069H48.481V12.9877ZM46.877 12.9877H47.3649V15.4069H46.877V12.9877Z" fill="white"/>
<path d="M53.4238 13.4335V12.9877H55.1985V13.4335H54.5535V15.4069H54.0656V13.4335H53.4238Z" fill="white"/>
<path d="M65.1901 14.8574L65.248 14.4668H66.3945L66.4525 14.8574H65.1901ZM65.8145 13.7722L65.4565 14.6051L65.4668 14.7157L65.1527 15.4069H64.603L65.8145 12.8459L67.026 15.4069H66.4731L66.166 14.7364L66.173 14.612L65.8145 13.7722Z" fill="white"/>
<path d="M71.8304 14.18V13.9554H72.216C72.2865 13.9554 72.3482 13.9439 72.4001 13.9208C72.4525 13.8978 72.4927 13.8644 72.5198 13.8206C72.5492 13.7768 72.5642 13.725 72.5642 13.6651C72.5642 13.5729 72.5324 13.5026 72.4684 13.4543C72.4071 13.4059 72.323 13.3817 72.216 13.3817H71.9533V15.0129H72.2674C72.3492 15.0129 72.423 15.0014 72.4889 14.9784C72.5548 14.9531 72.6062 14.9139 72.6427 14.8609C72.6815 14.8079 72.7006 14.7399 72.7006 14.657C72.7006 14.597 72.6894 14.5464 72.6665 14.5049C72.646 14.4611 72.6151 14.4254 72.5745 14.3977C72.5357 14.3678 72.4903 14.3471 72.438 14.3355C72.3856 14.3217 72.3286 14.3148 72.2674 14.3148H71.8304V14.0452H72.3118C72.4277 14.0452 72.538 14.0579 72.6427 14.0833C72.7497 14.1086 72.8451 14.1489 72.9292 14.2042C73.0133 14.2572 73.0792 14.3263 73.1274 14.4116C73.1774 14.4968 73.2022 14.5994 73.2022 14.7192C73.2022 14.8782 73.1648 15.0083 73.0895 15.1097C73.0166 15.2111 72.9133 15.286 72.7792 15.3343C72.645 15.3827 72.4889 15.4069 72.3118 15.4069H71.4653V12.9877H72.2604C72.4197 12.9877 72.5595 13.0107 72.6801 13.0568C72.8007 13.1006 72.8951 13.1674 72.9633 13.2573C73.0316 13.3471 73.0657 13.4612 73.0657 13.5994C73.0657 13.7215 73.0316 13.8264 72.9633 13.9139C72.8951 14.0015 72.8007 14.0683 72.6801 14.1144C72.5595 14.1582 72.4197 14.18 72.2604 14.18H71.8304Z" fill="white"/>
<path d="M77.4561 13.4335V12.9877H79.2307V13.4335H78.5857V15.4069H78.0978V13.4335H77.4561Z" fill="white"/>
<path d="M83.8969 14.1972C83.8969 14.3516 83.9287 14.4887 83.9927 14.6085C84.0563 14.7283 84.1437 14.8227 84.2554 14.8919C84.3666 14.961 84.4966 14.9956 84.6443 14.9956C84.7924 14.9956 84.9219 14.961 85.0336 14.8919C85.1448 14.8227 85.2313 14.7283 85.2925 14.6085C85.3566 14.4887 85.3883 14.3516 85.3883 14.1972C85.3883 14.0429 85.3575 13.9058 85.2963 13.7859C85.2346 13.6661 85.1481 13.5717 85.0369 13.5026C84.9252 13.4334 84.7943 13.3989 84.6443 13.3989C84.4966 13.3989 84.3666 13.4334 84.2554 13.5026C84.1437 13.5717 84.0563 13.6661 83.9927 13.7859C83.9287 13.9058 83.8969 14.0429 83.8969 14.1972ZM83.3818 14.1972C83.3818 14.0129 83.4136 13.8447 83.4772 13.6926C83.5412 13.5383 83.6296 13.4046 83.7436 13.2917C83.8572 13.1788 83.9904 13.0924 84.1428 13.0325C84.2975 12.9703 84.4648 12.9392 84.6443 12.9392C84.8265 12.9392 84.9934 12.9703 85.1458 13.0325C85.2986 13.0924 85.4313 13.1788 85.5454 13.2917C85.6613 13.4046 85.7501 13.5383 85.8113 13.6926C85.8749 13.8447 85.9072 14.0129 85.9072 14.1972C85.9072 14.3792 85.8749 14.5486 85.8113 14.7052C85.7501 14.8596 85.6622 14.9944 85.5487 15.1096C85.437 15.2248 85.3042 15.3147 85.1495 15.3792C84.9971 15.4414 84.8284 15.4725 84.6443 15.4725C84.4601 15.4725 84.2904 15.4414 84.1357 15.3792C83.9834 15.3147 83.8506 15.2248 83.7366 15.1096C83.623 14.9944 83.5351 14.8596 83.4739 14.7052C83.4127 14.5486 83.3818 14.3792 83.3818 14.1972Z" fill="white"/>
</g>
<defs>
<clipPath id="clip0_37_3">
<rect width="86" height="15.8913" fill="white"/>
</clipPath>
</defs>
</svg>
